<svg width="317" height="375" viewBox="0 0 317 375" fill="none" xmlns="http://www.w3.org/2000/svg">
<path d="M160.605 10.761C161.357 10.7845 161.894 10.815 162.214 10.8525C181.079 13.0312 199.866 15.7352 218.577 18.9646C220.825 19.3539 223.145 19.776 225.537 20.231C241.846 23.3302 258.163 26.8129 273.745 32.0052C282.313 34.8616 291.399 38.6539 298.687 44.5005C300.545 45.9885 301.716 47.3429 301.942 49.6893C303.433 65.17 304.509 80.6778 305.172 96.2125C306.318 123.141 306.209 150.165 303.867 177.031C302.547 192.119 300.315 207.147 296.518 221.827C290.529 244.988 278.645 267.344 263.693 286.2C244.153 310.842 219.239 329.887 191.3 344.198C181.401 349.266 170.859 353.623 159.674 357.27C157.87 357.859 156.162 357.893 154.551 357.372C127.815 348.757 102.211 334.619 80.6717 316.949C49.3467 291.258 25.2356 256.087 16.0971 215.991C12.6724 200.956 10.7265 185.541 9.61206 170.175C7.59897 142.394 7.81478 114.333 9.35025 86.5314C9.37148 86.1304 9.22996 85.4444 9.30072 85.1595C9.87387 82.9198 10.5072 80.6965 11.2006 78.4897C11.335 78.0605 11.3987 77.3992 11.7384 76.868C11.7997 76.7742 11.8834 76.7437 11.9896 76.7765C15.2775 77.7803 18.3378 78.5577 21.1705 79.1088C27.3737 80.3143 34.1737 80.9803 41.5703 81.1069C47.882 81.2125 51.6134 81.2465 52.7644 81.209C55.5321 81.1176 58.3092 80.9895 61.075 80.8255C102.458 78.356 138.517 49.6682 150.56 10.4409C150.596 10.326 150.674 10.2685 150.794 10.2685L160.176 10.272C160.301 10.272 160.365 10.333 160.368 10.455C160.37 10.4972 160.376 10.5394 160.385 10.5816C160.411 10.6989 160.484 10.7587 160.605 10.761ZM279.172 236.947C281.653 230.882 283.672 224.862 285.229 218.886C290.139 200.023 292.358 180.45 293.391 161.028C295.308 125.104 293.967 88.8637 290.589 53.0453C290.585 53.0019 290.573 52.9595 290.552 52.9208C290.532 52.8821 290.503 52.8478 290.468 52.8201C287.284 50.2732 283.52 48.3806 279.784 46.7765C267.581 41.5279 254.098 38.2915 240.307 35.0059C233.074 33.2821 223.407 31.4212 211.307 29.4231C191.82 26.2043 175.181 24.0619 156.975 21.9829C156.807 21.9638 156.639 21.9991 156.494 22.0835C156.349 22.1679 156.236 22.2968 156.172 22.4508C144.758 50.1642 122.204 71.9852 94.2256 82.9784C81.9454 87.8049 68.4835 90.3166 55.2799 90.4714C44.7333 90.598 32.2797 90.8865 21.075 88.6984C20.9642 88.6773 20.9052 88.723 20.8981 88.8356C19.5537 112.569 19.4523 136.254 20.5938 159.889C21.1635 171.687 22.3204 183.5 23.9301 194.557C25.3312 204.186 26.9669 212.419 28.8373 219.255C34.0923 238.474 42.8581 256.49 55.1348 273.303C73.6348 298.632 98.3402 318.423 126.131 332.962C135.648 337.94 146.233 342.502 156.83 345.897C156.943 345.932 157.056 345.932 157.169 345.897C161.691 344.492 166.404 342.757 171.31 340.691C219.009 320.621 259.384 285.31 279.172 236.947Z" fill="url(#paint0_linear_179_134)"/>
<path d="M279.173 236.947C259.385 285.31 219.01 320.621 171.311 340.691C166.405 342.757 161.692 344.492 157.17 345.897C157.057 345.932 156.944 345.932 156.831 345.897C146.234 342.502 135.649 337.94 126.132 332.962C98.3413 318.423 73.6358 298.632 55.1359 273.303C42.8592 256.49 34.0934 238.474 28.8383 219.255C26.9679 212.419 25.3322 204.186 23.9312 194.557C22.3214 183.5 21.1645 171.687 20.5949 159.889C19.4533 136.254 19.5548 112.569 20.8992 88.8356C20.9063 88.723 20.9652 88.6773 21.0761 88.6984C32.2808 90.8865 44.7343 90.598 55.2809 90.4714C68.4846 90.3166 81.9464 87.8049 94.2267 82.9784C122.205 71.9852 144.759 50.1642 156.173 22.4507C156.237 22.2968 156.35 22.1679 156.495 22.0835C156.64 21.9991 156.808 21.9638 156.976 21.9829C175.182 24.0619 191.821 26.2043 211.308 29.4231C223.408 31.4212 233.075 33.2821 240.308 35.0059C254.099 38.2915 267.582 41.5279 279.785 46.7765C283.521 48.3806 287.285 50.2732 290.469 52.8201C290.504 52.8478 290.533 52.8821 290.553 52.9208C290.574 52.9595 290.586 53.0019 290.59 53.0453C293.969 88.8637 295.309 125.104 293.392 161.028C292.359 180.45 290.14 200.023 285.23 218.886C283.673 224.862 281.654 230.882 279.173 236.947ZM110.625 188.661C110.639 188.66 110.654 188.664 110.666 188.67C110.679 188.677 110.69 188.687 110.697 188.699C110.705 188.711 110.709 188.725 110.709 188.74C110.71 188.754 110.706 188.768 110.699 188.78C99.1067 210.816 87.5293 232.817 75.9673 254.782C74.3446 257.861 73.42 260.002 73.1936 261.205C72.3303 265.807 75.1218 270.468 79.4947 272.336C80.8886 272.934 82.1516 273.029 83.673 273.029C99.0324 273.026 114.394 273.028 129.758 273.032C132.225 273.032 134.359 272.329 136.158 270.922C137.05 270.225 138.181 268.839 139.551 266.764C145.009 258.506 150.422 250.22 155.79 241.907C156.562 240.714 157.69 239.68 159.056 240.373C159.483 240.589 159.952 241.088 160.464 241.871C165.946 250.291 171.448 258.696 176.972 267.087C178.957 270.102 180.715 272.002 184.037 272.765C184.79 272.939 186.996 273.025 190.657 273.025C204.821 273.032 218.985 273.055 233.151 273.092C234.243 273.097 235.237 272.935 236.134 272.607C242.368 270.334 245.021 263.689 241.936 257.828C229.836 234.826 217.739 211.825 205.644 188.823C205.58 188.705 205.615 188.647 205.75 188.647C213.066 188.642 220.406 188.642 227.77 188.647C230.952 188.647 233.23 188.487 234.605 188.168C241.246 186.624 246.698 181.375 248.552 174.945C251.096 166.115 246.84 156.065 238.189 152.336C221.219 145.019 204.257 137.709 187.303 130.406C187.256 130.386 187.215 130.352 187.187 130.309C187.159 130.266 187.144 130.215 187.144 130.163C187.174 127.288 187.153 124.386 187.08 121.456C186.638 103.192 170.515 89.7151 152.256 93.4053C140.814 95.7165 131.998 104.75 129.702 116.018C128.835 120.278 129.146 125.558 129.178 130.177C129.178 130.224 129.164 130.27 129.139 130.309C129.113 130.349 129.076 130.38 129.033 130.399C113.143 137.242 97.2504 144.089 81.3556 150.939C78.3106 152.253 76.2126 153.309 75.0616 154.109C61.4299 163.6 65.9089 184.58 82.0455 188.214C83.3805 188.514 85.245 188.66 87.639 188.65C95.3163 188.62 102.978 188.623 110.625 188.661Z" fill="url(#paint1_linear_179_134)"/>
<path d="M110.625 188.661C102.979 188.623 95.3166 188.62 87.6392 188.65C85.2452 188.66 83.3807 188.514 82.0457 188.214C65.9091 184.58 61.4301 163.6 75.0618 154.109C76.2128 153.309 78.3108 152.253 81.3558 150.939C97.2506 144.089 113.143 137.242 129.033 130.399C129.076 130.38 129.113 130.349 129.139 130.309C129.164 130.27 129.178 130.224 129.178 130.177C129.146 125.558 128.835 120.278 129.702 116.018C131.998 104.75 140.815 95.7165 152.256 93.4053C170.516 89.7151 186.638 103.192 187.08 121.456C187.153 124.386 187.175 127.288 187.144 130.163C187.144 130.215 187.159 130.266 187.187 130.309C187.215 130.352 187.256 130.386 187.303 130.406C204.257 137.709 221.219 145.019 238.189 152.336C246.84 156.065 251.096 166.115 248.552 174.945C246.698 181.375 241.246 186.624 234.606 188.168C233.23 188.487 230.952 188.647 227.77 188.647C220.407 188.642 213.066 188.642 205.75 188.647C205.616 188.647 205.58 188.705 205.644 188.823C217.739 211.825 229.836 234.826 241.936 257.828C245.021 263.689 242.368 270.334 236.134 272.607C235.238 272.935 234.243 273.097 233.151 273.092C218.985 273.055 204.821 273.032 190.657 273.025C186.997 273.025 184.79 272.939 184.038 272.765C180.715 272.002 178.957 270.102 176.972 267.087C171.448 258.696 165.946 250.291 160.464 241.872C159.952 241.088 159.483 240.589 159.056 240.373C157.691 239.68 156.562 240.714 155.791 241.907C150.422 250.22 145.009 258.506 139.551 266.764C138.181 268.839 137.05 270.225 136.159 270.922C134.359 272.329 132.226 273.032 129.758 273.032C114.394 273.028 99.0326 273.027 83.6732 273.029C82.1519 273.029 80.8888 272.934 79.4949 272.336C75.122 270.468 72.3305 265.807 73.1938 261.205C73.4202 260.002 74.3448 257.861 75.9675 254.782C87.5295 232.817 99.1069 210.816 110.7 188.781C110.706 188.768 110.71 188.754 110.709 188.74C110.709 188.725 110.705 188.711 110.697 188.699C110.69 188.687 110.679 188.677 110.666 188.67C110.654 188.664 110.64 188.66 110.625 188.661Z" fill="url(#paint2_linear_179_134)"/>
<defs>
<linearGradient id="paint0_linear_179_134" x1="100.903" y1="64.133" x2="249.492" y2="303.183" gradientUnits="userSpaceOnUse">
<stop stop-color="#004AAD"/>
<stop offset="1"/>
</linearGradient>
<linearGradient id="paint1_linear_179_134" x1="99.1196" y1="69.4774" x2="259.366" y2="269.392" gradientUnits="userSpaceOnUse">
<stop stop-color="#DAF8B5"/>
<stop offset="1" stop-color="#80A1D3"/>
</linearGradient>
<linearGradient id="paint2_linear_179_134" x1="131.265" y1="118.468" x2="230.943" y2="260.329" gradientUnits="userSpaceOnUse">
<stop stop-color="#004AAD"/>
<stop offset="1"/>
<stop offset="1" stop-color="#342828"/>
</linearGradient>
</defs>
</svg>
